<?xml version="1.0" standalone="no"?>
<!DOCTYPE svg PUBLIC "-//W3C//DTD SVG 20010904//EN"
 "http://www.w3.org/TR/2001/REC-SVG-20010904/DTD/svg10.dtd">
<svg version="1.0" xmlns="http://www.w3.org/2000/svg"
 width="700.000000pt" height="700.000000pt" viewBox="0 0 700.000000 700.000000"
 preserveAspectRatio="xMidYMid meet">
<metadata>
Created by potrace 1.11, written by Peter Selinger 2001-2013
</metadata>
<g transform="translate(0.000000,700.000000) scale(0.100000,-0.100000)"
fill="#000000" stroke="none">
<path d="M1080 6980 c-240 -46 -424 -130 -593 -274 -247 -209 -383 -427 -460
-736 l-21 -85 -3 -2345 c-2 -2544 -5 -2416 51 -2607 74 -249 233 -480 455
-658 72 -57 209 -140 281 -169 25 -10 54 -22 65 -27 29 -12 154 -47 195 -54
19 -3 49 -9 65 -12 17 -4 1076 -8 2355 -9 2506 -3 2407 -5 2590 48 135 39 332
141 435 225 84 69 212 204 273 288 95 131 174 317 209 490 17 85 18 208 18
2445 0 2555 4 2388 -57 2585 -49 162 -130 309 -242 440 -206 240 -434 380
-731 448 -90 21 -100 21 -2440 23 -2223 2 -2355 1 -2445 -16z"/>
</g>
</svg>
