<?xml version="1.0" standalone="no"?>
<!DOCTYPE svg PUBLIC "-//W3C//DTD SVG 20010904//EN"
 "http://www.w3.org/TR/2001/REC-SVG-20010904/DTD/svg10.dtd">
<svg version="1.0" xmlns="http://www.w3.org/2000/svg"
 width="700.000000pt" height="700.000000pt" viewBox="0 0 700.000000 700.000000"
 preserveAspectRatio="xMidYMid meet">
<metadata>
Created by potrace 1.11, written by Peter Selinger 2001-2013
</metadata>
<g transform="translate(0.000000,700.000000) scale(0.100000,-0.100000)"
fill="#000000" stroke="none">
<path d="M3285 6994 c-203 -20 -276 -28 -375 -45 -610 -105 -1195 -376 -1665
-772 -95 -81 -310 -294 -394 -392 -468 -542 -742 -1176 -833 -1925 -17 -137
-17 -583 0 -720 91 -749 365 -1383 833 -1925 84 -98 299 -311 394 -392 461
-388 1034 -657 1635 -767 286 -52 181 -49 2223 -53 l1898 -4 -4 1898 c-4 2042
-1 1937 -53 2223 -113 618 -386 1192 -795 1665 -84 98 -299 311 -394 392 -518
437 -1148 710 -1845 798 -117 15 -536 28 -625 19z m865 -1724 c328 -61 548
-188 638 -369 35 -71 37 -80 36 -165 -1 -69 -6 -105 -23 -149 -76 -195 -306
-410 -598 -556 -261 -130 -526 -211 -863 -262 -187 -28 -507 -31 -675 -5 -595
91 -867 391 -685 754 177 353 776 670 1430 756 180 24 183 24 410 21 167 -3
241 -8 330 -25z m-2186 -1615 c181 -180 428 -318 728 -409 527 -159 1142 -150
1662 25 137 46 398 179 498 254 114 86 225 199 287 292 47 72 51 75 59 52 12
-31 40 -155 55 -244 l12 -70 48 -7 c145 -20 216 -180 125 -284 -37 -42 -75
-63 -131 -72 l-42 -7 -12 -88 c-124 -868 -884 -1525 -1765 -1527 -359 0 -705
105 -1014 311 -140 93 -360 310 -458 452 -121 174 -219 390 -272 597 -13 52
-43 224 -44 251 0 3 -18 11 -41 18 -52 16 -115 73 -130 118 -31 95 39 209 141
229 30 7 32 10 46 99 3 22 17 89 31 148 l25 108 51 -78 c27 -43 91 -119 141
-168z"/>
</g>
</svg>
