<?xml version="1.0" encoding="utf-8"?>
<!-- Generator: Adobe Illustrator 16.0.0, SVG Export Plug-In . SVG Version: 6.00 Build 0)  -->
<!DOCTYPE svg PUBLIC "-//W3C//DTD SVG 1.1//EN" "http://www.w3.org/Graphics/SVG/1.1/DTD/svg11.dtd">
<svg version="1.1" id="Layer_1" xmlns="http://www.w3.org/2000/svg" xmlns:xlink="http://www.w3.org/1999/xlink" x="0px" y="0px"
	 width="498px" height="174px" viewBox="-3.927 -4.68 498 174"  fill="#3EC4F7" enable-background="new -3.927 -4.68 498 174" xml:space="preserve">
<filter  id="dropshadow">
	<feGaussianBlur  in="SourceAlpha" stdDeviation="5"></feGaussianBlur>
	<feOffset  dy="3px" dx="3px"></feOffset>
	<feComponentTransfer>
		<feFuncA  type="linear" slope="0.5"></feFuncA>
	</feComponentTransfer>
	<feMerge>
		<feMergeNode></feMergeNode>
		<feMergeNode  in="SourceGraphic"></feMergeNode>
	</feMerge>
</filter>
<g id="Layer_1_1_" filter="url(#dropshadow)">
	<g>
		<path d="M164.577,66.726c0,0,3.962,11.582,14.606,6.26c0.596-0.298-3.577-3.278-5.366-5.962
			C172.029,64.34,165.172,61.658,164.577,66.726"/>
		<path d="M332.313,74.376c0,0,0.555-11.393,9.836-4.173c2.683,2.086-0.457,8.538,2.086,11.624
			c1.393,1.689-2.571,3.844-4.969,2.979C336.784,83.915,332.709,81.827,332.313,74.376"/>
		<g>
			<path d="M47.038,17.393c1.51-18.406,5.366-0.026,5.366-0.026s6.408,37.733-1.342,73.205
				C51.062,90.572,43.909,55.547,47.038,17.393 M82.957,143.481c-1.341,0.895-3.428-0.299-4.173-10.881
				c-0.535-7.588-2.236-36.663-12.072-35.321c-7.862,1.071-8.049,11.477-8.347,19.374l-0.298,7.898c0,0-0.447,1.938-1.192,0
				s-2.385-8.494-2.236-18.479c0.003-0.212,15.202-31.027,1.789-91.239c-1.361-6.106-2.633-9.241-3.577-11.151
				c-0.961-1.945-1.49-6.109-10.88-1.788c-9.39,4.321-6.111,36.067-5.067,47.098c1.043,11.028,7.601,60.957,7.601,60.957
				s-8.048,27.57-19.823,35.472c-3.539,2.375-7.75,5.663-12.519-4.919s-6.14-30.643,4.471-51.866c1.938-3.875,4.173-0.743,4.919,0.3
				c0.745,1.044,2.831,6.26,7.004,9.092c0,0,4.472,1.49,2.683-3.875c-2.118-6.354-11.178-22.207-23.548-7.153
				c-0.268,0.325-11.61,18.571-6.26,50.673c3.13,18.778,21.401,17.305,24.741,15.948c4.769-1.938,15.604-10.896,21.312-28.021
				c0.299-0.896,4.128,19.433,14.457,16.691c7.303-1.938,4.472-22.059,4.472-22.059s0.596-4.473,2.98-0.446
				c4.157,7.015,0.597,17.139,4.621,26.229c1.838,4.153,10.581,7.898,13.711-0.597C90.856,136.922,83.901,142.85,82.957,143.481"/>
			<path d="M96.219,112.622c0,0-1.639,0.44-1.341-2.945s2.384-18.555,14.307-14.872
				c11.924,3.682,16.396,27.242,6.409,39.907c-6.291,7.979-22.739,14.187-9.687-15.903l0.447-1.031c0,0,3.726,2.355,4.471-3.387
				c0.745-5.743-6.26-4.741-10.433-1.312c-1.439,1.183-14.907,12.94-6.707,29.146c7.303,14.431,27.22,2.771,31.597-5.744
				c4.77-9.275,9.24-44.415-16.842-48.742c-9.613-1.595-28.738,12.659-17.288,26.947C93.685,117.845,96.219,112.764,96.219,112.622"
				/>
			<path d="M151.86,63.448l-4.223,16.617c-8.646,46.5,2.832,53.729,3.875,54.475
				c1.043,0.744,4.918-3.728,4.173-11.625c-0.745-7.898,0.149-23.548,9.091-21.762c8.943,1.789,1.916,24.743,1.938,24.891
				c3.13,20.865,23.995-13.266,23.846-10.729c-0.378,6.427-6.706,18.185-12.966,23.397c-6.26,5.219-16.396-1.639-16.494-1.539
				c-1.697,1.688-7.949,8.94-17.687,0.396c-20.83-18.277,6.458-98.365,6.458-98.365c4.771-12.719,15.8-0.349,9.688,16.195
				c-3.008,8.144-3.785,11.248-5.067,7.75C152.853,58.679,151.86,63.448,151.86,63.448"/>
			<path d="M234.029,83.561c-1.521-1.591-15.218-1.186-30.464-0.191c0.024-20.428,1.421-41.142,4.829-55.765
				c0,0-2.308-10.003-9.837-1.781c-3.428,3.741-4.77,47.937-4.918,56.669c-0.008,0.392-0.014,0.928-0.019,1.584
				c-17.533,1.342-34.112,3.049-34.112,3.049s-2.683,7.483,5.365,7.483c6.013,0,14.272-2.483,28.751-3.669
				c0.177,22.343,2.025,77.184,14.77,73.523c3.726-1.067,4.321-3.026,4.918-4.987c0,0-3.497-8.578-4.77-13.899
				c-2.683-11.228-4.62-32.565-4.937-55.175c2.222-0.062,4.559-0.088,7.023-0.069C236.265,90.51,239.098,88.866,234.029,83.561"/>
			<path d="M254.499,141.287c0,0,0.863,8.441-7.477,4.378c-8.34-4.063-8.174-10.231-8.771-14.854
				c-0.026-0.209-17.796,29.276-26.827,6.11c-3.428-8.793,10.723-38.4,24.294-34.727c7.154,1.938,9.836,7.75,3.577,12.52
				c-6.26,4.771-11.744,3.582-8.347,0.896c6.409-5.066,3.428-10.582-1.043-6.707c-9.718,8.423-16.245,39.348-2.981,24.891
				c10.286-11.21,14.61-20.986,19.823-16.395C253.006,122.913,245.259,142.967,254.499,141.287"/>
			<path d="M307.969,18.933c0,0,15.044-7.516,9.737,3.18c-12.32,24.841-29.025,112.222-16.99,116.45
				c11.028,3.875,21.959-19.377,24.145-19.377c2.188,0,4.402,4.672,2.98,8.049c-2.385,5.664-24.74,35.175-37.955,14.904
				C278.472,124.629,289.487,64.043,307.969,18.933"/>
			<path d="M325.458,104.382c1.213-4.489,12.32-8.347,10.532,1.59c-1.789,9.938-6.509,47.966,6.757,30.403
				c6.755-8.941,6.559-9.539,6.559-9.539s1.385-41.733,15.5-27.62c0.596,0.597-3.576,8.544-4.373,16.891
				c-0.019,0.196,3.379-11.128,9.34-13.114c5.963-1.986,9.342,2.187,9.342,3.775s-7.75,35.968,10.135,26.431
				c17.885-9.539,7.354,3.379,5.962,4.57c-1.394,1.19-19.077,11.923-28.021-10.533c-0.072-0.185-0.993-8.544-6.359,0.994
				c-2.867,5.099-0.993,8.745-0.396,9.735l0.598,0.994c0,0-7.652,6.062-9.889-2.883c0,0-11.027,22.805-24.891,4.672
				C320.673,133.451,323.472,111.735,325.458,104.382"/>
			<path d="M412.174,117.895c-4.259,7.895-12.698,19.776-14.509,8.524c0,0-0.951-11.569,8.992-13.909
				C416.603,110.173,412.974,116.414,412.174,117.895 M446.167,132.574c-40.689,15.558-8.059-80.639-6.588-94.493
				c1.25-11.784-10.546-2.229-10.546-2.229c-15.903,58.398-13.573,69.388-13.722,69.301c-18.367-10.78-37.737,5.072-27.33,31.392
				c2.715,6.861,9.668,5.816,13.973,2.33c6.408-5.188,14.893-19.541,14.914-19.301c3.066,34.461,28.703,19.26,28.703,19.26
				S456.302,128.699,446.167,132.574"/>
			<path d="M488.592,131.409c0,0,2.239-1.509,1.341,2.979c-0.844,4.223-5.216,7.377-9.486,6.435
				c-9.062-2.003-10.155-12.512-10.751-17.13c-0.027-0.211-22.042,35.009-30.581,11.564c-3.23-8.866,15.646-36.756,29.218-33.079
				c7.154,1.938-3.081,7.85-7.553,11.724c-9.72,8.425-15.679,27.228-2.411,12.771c10.286-11.211,11.506-26.901,16.719-22.31
				C481.345,109.879,474.583,141.021,488.592,131.409"/>
		</g>
	</g>
</g>
</svg>
