<?xml version="1.0" encoding="utf-8"?>
<!-- Generated by IcoMoon.io -->
<!DOCTYPE svg PUBLIC "-//W3C//DTD SVG 1.1//EN" "http://www.w3.org/Graphics/SVG/1.1/DTD/svg11.dtd">
<svg version="1.1" xmlns="http://www.w3.org/2000/svg" xmlns:xlink="http://www.w3.org/1999/xlink" width="512" height="512" viewBox="0 0 512 512">
<g fill="#f7f6f3" opacity="0.5">
	<path d="M125.737 120.647l189.481 47.37-2.365 300.83-182.395-75.817z" />
	<path d="M334.183 168.018l52.081-28.426-2.345 307.917-45.005 35.543z" />
	<path d="M192.041 139.244c0-27.658 9.226-53.689 24.074-67.932 7.189-6.902 14.838-10.24 22.722-9.902 12.175 0.512 21.555 5.335 28.703 14.787 17.234 22.784 17.377 65.546 10.209 95.632l27.587 6.595c8.981-37.591 7.762-89.088-15.145-119.378-12.206-16.159-29.573-25.129-50.145-25.989-15.688-0.656-30.771 5.468-43.571 17.756-20.552 19.712-32.819 52.766-32.819 88.422h28.386z" />
	<path d="M252.826 119.849c0-22.425 7.393-43.469 19.333-54.927 5.529-5.284 11.305-7.824 17.214-7.588 8.663 0.368 15.431 3.513 20.746 9.657 10.384 12.032 15.114 35.911 12.329 62.341l28.242 2.97c1.721-16.558 3.338-57.846-19.077-83.856-10.414-12.063-24.617-18.791-41.052-19.456-13.752-0.594-26.901 4.772-38.041 15.452-15.647 14.981-25.641 38.922-27.709 65.382 9.656 3.513 28.017 10.025 28.017 10.025z" />
</g>
</svg>
